# Aspose.3D Wavefront OBJ Exporter
# Copyright 2004-2022 Aspose Pty Ltd.
# File created: 03/01/2022 14:26:30


#
# object obj_6118580
#

v 20.97317695617675776 7.97977638244628912 -6.34999990463256836
v 29.7144813537597656 20.46365356445312496 -6.34999990463256836
v 21.49333763122558592 7.61555528640747072 -6.34999990463256836
v 30.23464202880859376 20.09943199157714844 -6.34999990463256836
v 29.7144813537597656 20.46365356445312496 6.34999990463256836
v 30.23464202880859376 20.09943199157714844 6.34999990463256836
v 21.49333763122558592 7.61555528640747072 6.34999990463256836
v 20.97317695617675776 7.97977638244628912 6.34999990463256836
# 8 vertices

vn 0 0 -1
vn 0.5735764503479004 0.81915205717086784 0
vn 0.81915205717086784 -0.5735764503479004 0
vn -0.5735764503479004 -0.81915205717086784 0
vn -0.81915205717086784 0.5735764503479004 0
vn 0 0 1
# 6 vertex normals

g obj_6118580
s 1
f 1//1 2//1 3//1
f 3//1 2//1 4//1
f 5//2 6//2 2//2
f 2//2 6//2 4//2
f 6//3 7//3 4//3
f 4//3 7//3 3//3
f 7//4 8//4 3//4
f 3//4 8//4 1//4
f 8//5 5//5 1//5
f 1//5 5//5 2//5
f 8//6 7//6 5//6
f 5//6 7//6 6//6
#12 polygons

