# Aspose.3D Wavefront OBJ Exporter
# Copyright 2004-2022 Aspose Pty Ltd.
# File created: 03/01/2022 14:24:00


#
# object obj_32790284
#

v -16.15564155578613282 3.56252121925354 -6.34999990463256836
v 11.5107412338256836 8.4408512115478516 -6.34999990463256836
v -16.04537391662597656 2.93716835975646976 -6.34999990463256836
v 13.9715652465820312 8.22996520996093752 -6.34999990463256836
v 11.72457313537597664 8.49814701080322264 -6.34999990463256836
v 11.92520713806152336 8.59170436859130856 -6.34999990463256836
v 12.10654830932617188 8.71868038177490232 -6.34999990463256836
v 12.26308441162109376 8.87521648406982416 -6.34999990463256836
v 12.39005947113037112 9.05655670166015625 -6.34999990463256836
v 12.48361682891845704 9.25719070434570312 -6.34999990463256836
v 12.54091358184814456 9.47102355957031248 -6.34999990463256836
v 12.5982093811035156 9.68485546112060544 -6.34999990463256836
v 13.57108592987060544 10.50119590759277344 -6.34999990463256836
v 12.6917667388916016 9.8854904174804688 -6.34999990463256836
v 12.81874275207519536 10.06683063507080078 -6.34999990463256836
v 12.97527885437011712 10.22336673736572264 -6.34999990463256836
v 13.15661907196044922 10.3503427505493164 -6.34999990463256836
v 13.35725402832031248 10.44390010833740232 -6.34999990463256836
v -16.15564155578613282 3.56252121925354 6.34999990463256836
v 11.5107412338256836 8.4408512115478516 6.34999990463256836
v 11.7305192947387696 8.50032806396484376 -2.11666655540466308
v 11.93614482879638672 8.59809207916259768 -2.11666655540466308
v 12.12100982666015624 8.73100090026855472 -2.11666655540466308
v 12.2791728973388672 8.8947830200195312 -2.11666655540466308
v 12.40554904937744144 9.08417415618896484 -2.11666655540466308
v 12.49607753753662112 9.29308700561523436 -2.11666655540466308
v 12.49607753753662112 9.29308700561523436 2.11666655540466308
v 12.54091358184814456 9.47102355957031248 6.34999990463256836
v 12.48361682891845704 9.25719070434570312 6.34999990463256836
v 11.7305192947387696 8.50032806396484376 2.11666655540466308
v 11.93614482879638672 8.59809207916259768 2.11666655540466308
v 12.12100982666015624 8.73100090026855472 2.11666655540466308
v 12.2791728973388672 8.8947830200195312 2.11666655540466308
v 12.40554904937744144 9.08417415618896484 2.11666655540466308
v 11.72457313537597664 8.49814701080322264 6.34999990463256836
v 11.92520713806152336 8.59170436859130856 6.34999990463256836
v 12.10654830932617188 8.71868038177490232 6.34999990463256836
v 12.26308441162109376 8.87521648406982416 6.34999990463256836
v 12.39005947113037112 9.05655670166015625 6.34999990463256836
v 12.55488586425781248 9.53926277160644528 -2.11666655540466308
v 12.62632274627685544 9.75544929504394528 -2.11666655540466308
v 12.55488586425781248 9.53926277160644528 2.11666655540466308
v 12.62632274627685544 9.75544929504394528 2.11666655540466308
v 12.5982093811035156 9.68485546112060544 6.34999990463256836
v 12.6917667388916016 9.8854904174804688 6.34999990463256836
v 12.73521327972412112 9.95540618896484368 2.11666655540466308
v 12.81874275207519536 10.06683063507080078 6.34999990463256836
v 12.8780574798583984 10.1327066421508789 2.11666655540466308
v 12.8780574798583984 10.1327066421508789 -2.11666655540466308
v 13.05026435852050781 10.28165149688720704 -2.11666655540466308
v 12.73521327972412112 9.95540618896484368 -2.11666655540466308
v 12.97527885437011712 10.22336673736572264 6.34999990463256836
v 13.05026435852050781 10.28165149688720704 2.11666655540466308
v 13.24629974365234376 10.39745426177978512 -2.11666655540466308
v 13.15661907196044922 10.3503427505493164 6.34999990463256836
v 13.24629974365234376 10.39745426177978512 2.11666655540466308
v 13.45986175537109376 10.47639274597167968 -2.11666655540466308
v 13.35725402832031248 10.44390010833740232 6.34999990463256836
v 13.45986175537109376 10.47639274597167968 2.11666655540466308
v 13.57108592987060544 10.50119590759277344 6.34999990463256836
v 13.9715652465820312 8.22996520996093752 6.34999990463256836
v -16.04537391662597656 2.93716835975646976 6.34999990463256836
# 62 vertices

vn 0 0 -1
vn -0.1736481785774231 0.98480772972106928 0
vn -0.25881904363632204 0.96592581272125248 0
vn -0.26565819978713988 0.96406728029251104 -0.00012353694182820618
vn -0.42938554286956784 0.90312123298645024 -0.00025333589292131364
vn -0.58374363183975216 0.811937928199768 -0.00036885091685689986
vn -0.71933972835540768 0.69465827941894528 -0.0004769268271047622
vn -0.83181560039520256 0.5550517439842224 -0.000577560858801
vn -0.91755628585815424 0.39760541915893552 -0.00067075056722387
vn -0.96968954801559456 0.24434040486812592 0
vn -0.96592563390731808 0.25881898403167724 -0.0006484318873845
vn -0.2612265944480896 0.96527749300003056 0
vn -0.42938554286956784 0.90312129259109504 0
vn -0.58374369144439696 0.8119379878044128 0
vn -0.71933978796005248 0.69465839862823488 0
vn -0.83181577920913696 0.555051863193512 0
vn -0.91755646467208864 0.39760550856590272 0
vn -0.25881904363632204 0.96592581272125248 0.00013409995881374925
vn -0.42261826992034912 0.90630775690078736 -0.000126668339362368
vn -0.5735763907432556 0.8191519975662232 -0.00024590190150775015
vn -0.70710670948028568 0.70710670948028568 -0.0003576977178454399
vn -0.8191519379615784 0.5735763907432556 -0.00046205302351154387
vn -0.90630763769149776 0.42261821031570432 -0.00055896519916132
vn -0.91755628585815424 0.39760541915893552 0.00067075056722387
vn -0.42938554286956784 0.90312123298645024 0.00025333589292131364
vn -0.58374363183975216 0.811937928199768 0.00036885091685689986
vn -0.71933972835540768 0.69465827941894528 0.0004769268271047622
vn -0.83181560039520256 0.5550517439842224 0.000577560858801
vn -0.96592563390731808 0.25881898403167724 0.0006484318873845
vn -0.90630763769149776 0.42261821031570432 0.00055896519916132
vn -0.8191519379615784 0.5735763907432556 0.00046205302351154387
vn -0.70710670948028568 0.70710670948028568 0.0003576977178454399
vn -0.5735763907432556 0.8191519975662232 0.00024590190150775015
vn -0.42261826992034912 0.90630775690078736 0.000126668339362368
vn -0.96592533588409424 0.25881892442703248 -0.00098401098512113
vn -0.9495037198066712 0.31375572085380556 0
vn -0.94950318336486816 0.3137555420398712 -0.00107344088610261
vn -0.90630728006362912 0.42261803150177 0.00102876429446041
vn -0.87822103500366208 0.47825369238853456 -0.00111446576192975
vn -0.81915158033370976 0.57357609272003176 0.00106606050394475
vn -0.77871215343475344 0.62738037109375 -0.00114803283941
vn -0.65417528152465824 0.75634300708770752 0
vn -0.57357609272003176 0.81915152072906496 -0.00111827766522765
vn -0.6541748046875 0.75634247064590448 0.00117414153646677
vn -0.70710635185241696 0.70710635185241696 -0.00109589844942092
vn -0.77871215343475344 0.62738037109375 0.00114803283941
vn -0.87822157144546512 0.4782539904117584 0
vn -0.77871263027191168 0.62738072872161864 0
vn -0.96592533588409424 0.25881892442703248 0.00098401098512113
vn -0.97967541217803952 0.20058941841125488 0
vn -0.70710635185241696 0.70710635185241696 0.00109589844942092
vn -0.6541748046875 0.75634247064590448 -0.00117414153646677
vn -0.50861215591430664 0.86099576950073248 0
vn -0.4226180016994476 0.90630722045898432 -0.00113319733645766
vn -0.5086117386817932 0.86099517345428464 0.0011927910381928
vn -0.57357609272003176 0.81915152072906496 0.00111827766522765
vn -0.5086117386817932 0.86099517345428464 -0.0011927910381928
vn -0.34670180082321168 0.93797540664672848 0
vn -0.25881886482238768 0.96592521667480464 -0.00114065734669566
vn -0.3467015326023102 0.937974750995636 0.00120398087892681
vn -0.4226180016994476 0.90630722045898432 0.00113319733645766
vn -0.3467015326023102 0.937974750995636 -0.00120398087892681
vn -0.21765655279159544 0.97602540254592896 0
vn -0.25881886482238768 0.96592521667480464 0.00114065734669566
vn -0.81915158033370976 0.57357609272003176 -0.00106606050394475
vn -0.87822103500366208 0.47825369238853456 0.00111446576192975
vn -0.90630728006362912 0.42261803150177 -0.00102876429446041
vn -0.94950318336486816 0.3137555420398712 0.00107344088610261
vn 0.98480772972106928 0.1736481785774231 0
vn 0.1736481785774231 -0.98480772972106928 0
vn -0.98480772972106928 -0.1736481785774231 0
vn 0 0 1
# 72 vertex normals

g obj_32790284
s 1
f 1//1 2//1 3//1
f 3//1 2//1 4//1
f 4//1 2//1 5//1
f 6//1 4//1 5//1
f 6//1 7//1 4//1
f 4//1 7//1 8//1
f 9//1 4//1 8//1
f 9//1 10//1 4//1
f 4//1 10//1 11//1
f 12//1 4//1 11//1
f 12//1 13//1 4//1
f 12//1 14//1 13//1
f 13//1 14//1 15//1
f 16//1 13//1 15//1
f 16//1 17//1 13//1
f 13//1 17//1 18//1
f 19//2 20//2 1//2
f 1//2 20//2 2//2
f 2//3 20//3 5//3
f 5//4 20//4 21//4
f 6//5 21//5 22//5
f 7//6 22//6 23//6
f 8//7 23//7 24//7
f 9//8 24//8 25//8
f 10//9 25//9 26//9
f 11//10 26//10 27//10
f 28//11 27//11 29//11
f 28//10 11//10 27//10
f 21//12 20//12 30//12
f 22//13 30//13 31//13
f 23//14 31//14 32//14
f 24//15 32//15 33//15
f 25//16 33//16 34//16
f 26//17 34//17 27//17
f 26//17 25//17 34//17
f 20//18 35//18 30//18
f 30//19 35//19 36//19
f 31//20 36//20 37//20
f 32//21 37//21 38//21
f 33//22 38//22 39//22
f 34//23 39//23 29//23
f 27//24 34//24 29//24
f 30//25 36//25 31//25
f 31//26 37//26 32//26
f 32//27 38//27 33//27
f 33//28 39//28 34//28
f 11//29 10//29 26//29
f 10//30 9//30 25//30
f 9//31 8//31 24//31
f 8//32 7//32 23//32
f 7//33 6//33 22//33
f 6//34 5//34 21//34
f 22//13 21//13 30//13
f 23//14 22//14 31//14
f 24//15 23//15 32//15
f 25//16 24//16 33//16
f 12//35 11//35 40//35
f 41//36 40//36 42//36
f 43//37 42//37 44//37
f 45//38 43//38 44//38
f 45//39 46//39 43//39
f 45//40 47//40 46//40
f 46//41 47//41 48//41
f 49//42 48//42 50//42
f 16//43 50//43 17//43
f 16//44 49//44 50//44
f 16//45 15//45 49//45
f 49//46 15//46 51//46
f 46//47 51//47 43//47
f 46//48 49//48 51//48
f 46//48 48//48 49//48
f 44//49 42//49 28//49
f 28//50 42//50 40//50
f 11//50 28//50 40//50
f 47//51 52//51 48//51
f 48//52 52//52 53//52
f 50//53 53//53 54//53
f 17//54 54//54 18//54
f 17//55 50//55 54//55
f 52//56 55//56 53//56
f 53//57 55//57 56//57
f 54//58 56//58 57//58
f 18//59 57//59 13//59
f 18//60 54//60 57//60
f 55//61 58//61 56//61
f 56//62 58//62 59//62
f 57//63 59//63 13//63
f 57//58 56//58 59//58
f 58//64 60//64 59//64
f 59//63 60//63 13//63
f 15//65 14//65 51//65
f 51//66 14//66 41//66
f 43//36 41//36 42//36
f 43//47 51//47 41//47
f 14//67 12//67 41//67
f 41//68 12//68 40//68
f 53//42 50//42 48//42
f 56//53 54//53 53//53
f 60//69 61//69 13//69
f 13//69 61//69 4//69
f 61//70 62//70 4//70
f 4//70 62//70 3//70
f 62//71 19//71 3//71
f 3//71 19//71 1//71
f 19//72 62//72 20//72
f 20//72 62//72 61//72
f 35//72 61//72 36//72
f 35//72 20//72 61//72
f 60//72 44//72 61//72
f 60//72 45//72 44//72
f 60//72 47//72 45//72
f 60//72 52//72 47//72
f 60//72 55//72 52//72
f 60//72 58//72 55//72
f 44//72 28//72 61//72
f 61//72 28//72 29//72
f 39//72 61//72 29//72
f 39//72 38//72 61//72
f 61//72 38//72 37//72
f 36//72 61//72 37//72
#120 polygons

